<svg xmlns="http://www.w3.org/2000/svg" width="320" height="320" viewBox="0 0 320 320" fill="none"><metadata><rdf:RDF xmlns:rdf="http://www.w3.org/1999/02/22-rdf-syntax-ns#" xmlns:dc="http://purl.org/dc/elements/1.1/"><rdf:Description><dc:creator>RealFaviconGenerator</dc:creator><dc:source>https://realfavicongenerator.net</dc:source></rdf:Description></rdf:RDF></metadata><path fill-rule="evenodd" clip-rule="evenodd" d="M148.246 25.8676C151.364 22.7509 155.592 21 160 21C164.408 21 168.636 22.7509 171.754 25.8676L288.132 142.244C290.457 144.569 292.04 147.531 292.681 150.756C293.322 153.98 292.993 157.323 291.735 160.36C290.477 163.397 288.346 165.994 285.613 167.82C282.879 169.647 279.666 170.623 276.378 170.623H259.753V270.375C259.753 274.784 258.001 279.013 254.883 282.131C251.765 285.248 247.537 287 243.127 287H209.876C205.467 287 201.238 285.248 198.12 282.131C195.002 279.013 193.251 274.784 193.251 270.375V220.499C193.251 216.09 191.499 211.861 188.381 208.743C185.264 205.625 181.035 203.874 176.625 203.874H143.375C138.965 203.874 134.736 205.625 131.619 208.743C128.501 211.861 126.749 216.09 126.749 220.499V270.375C126.749 274.784 124.998 279.013 121.88 282.131C118.762 285.248 114.533 287 110.124 287H76.8728C72.4634 287 68.2347 285.248 65.1168 282.131C61.9989 279.013 60.2473 274.784 60.2473 270.375V170.623H43.6219C40.3342 170.623 37.1205 169.647 34.3872 167.82C31.6538 165.994 29.5234 163.397 28.2653 160.36C27.0073 157.323 26.6781 153.98 27.3193 150.756C27.9605 147.531 29.5433 144.569 31.8677 142.244L148.246 25.8676Z" fill="#00A6F4"></path></svg>