<svg width="320" height="320" viewBox="0 0 320 320" fill="none" xmlns="http://www.w3.org/2000/svg">
<g clip-path="url(#clip0_2_2)">
<rect width="320" height="320" rx="100" fill="white"/>
<rect width="320" height="320" fill="#00A6F4"/>
<path fill-rule="evenodd" clip-rule="evenodd" d="M150.278 48.0259C152.857 45.4481 156.354 44 160 44C163.646 44 167.143 45.4481 169.722 48.0259L265.974 144.277C267.897 146.2 269.206 148.65 269.736 151.317C270.266 153.984 269.994 156.748 268.953 159.26C267.913 161.772 266.151 163.92 263.89 165.43C261.63 166.941 258.972 167.748 256.253 167.749H242.502V250.25C242.502 253.897 241.054 257.394 238.475 259.973C235.896 262.551 232.399 264 228.752 264H201.251C197.604 264 194.107 262.551 191.528 259.973C188.949 257.394 187.501 253.897 187.501 250.25V208.999C187.501 205.352 186.052 201.855 183.473 199.276C180.895 196.698 177.397 195.249 173.75 195.249H146.25C142.603 195.249 139.105 196.698 136.527 199.276C133.948 201.855 132.499 205.352 132.499 208.999V250.25C132.499 253.897 131.051 257.394 128.472 259.973C125.893 262.551 122.396 264 118.749 264H91.2482C87.6013 264 84.1039 262.551 81.5252 259.973C78.9465 257.394 77.4978 253.897 77.4978 250.25V167.749H63.7474C61.0283 167.748 58.3704 166.941 56.1097 165.43C53.849 163.92 52.087 161.772 51.0465 159.26C50.006 156.748 49.7337 153.984 50.2641 151.317C50.7944 148.65 52.1035 146.2 54.0259 144.277L150.278 48.0259Z" fill="white"/>
</g>
<defs>
<clipPath id="clip0_2_2">
<rect width="320" height="320" rx="100" fill="white"/>
</clipPath>
</defs>
</svg>
